<svg width="600" height="270" xmlns="http://www.w3.org/2000/svg"><path d="M283.89 27.01v8.415c0 20.751.05 14.706.148 17.387.1 2.283.496 4.045 1.19 5.286.447.745 1.242 1.54 2.384 2.384a355220.312 355220.312 0 0 0-18.914 0c.794-.894 1.589-1.763 2.384-2.607.942-1.34 1.439-3.053 1.489-5.138.148-3.028.222 3.092.222-17.162v-8.788c0-6.502-.074-10.523-.222-12.062l-4.023-.15c-1.687-.05-3.276.497-4.765 1.639-1.093.844-1.862 1.787-2.31 2.83 0-.695.224-1.663.671-2.905.547-1.538.92-2.779 1.118-3.723.199-.645.57-2.16 1.116-4.542 1.142-.05 3.079-.05 5.809 0 3.177.1 5.56.15 7.149.15 6.602 0 11.344-.174 14.224-.523.05.994.521 2.955 1.413 5.884.547 1.439 1.168 3.325 1.864 5.658-1.193-1.44-2.086-2.382-2.682-2.83-1.589-1.19-3.352-1.736-5.288-1.638l-3.052.15v4.989c.05 3.327.075 5.759.075 7.297zM330.92 25.67v14.149c0 12.261.446 19.136 1.339 20.625h-12.212c.795-2.333 1.193-5.287 1.193-8.86V32.966h-11.617l-.075 17.129c0 4.963.372 8.412 1.118 10.349h-11.99c.844-2.284 1.266-5.014 1.266-8.19V25.817c0-6.105-.05-9.927-.148-11.467-.1-2.433-.473-4.567-1.118-6.403a8488.665 8488.665 0 0 0 5.063 0h6.777c-.596 2.084-.894 4.814-.893 8.19v9.978h11.617c.048-4.716.048-8.488 0-11.317-.05-2.631-.373-4.915-.969-6.851a25776.361 25776.361 0 0 0 12.138 0c-.248.497-.596 1.688-1.043 3.574-.297 2.78-.446 7.497-.446 14.15zM350.6 34.31l-.148 15.117c0 3.127.024 4.889.073 5.286.15.844.647 1.266 1.49 1.266.298 0 .943-.074 1.937-.223 3.227-.447 5.312-.869 6.254-1.266 1.24-.547 2.929-1.912 5.063-4.095-.297 2.283-.818 5.61-1.563 9.979h-11.244c.05 0-2.308-.05-7.075-.15-2.878-.05-5.26 0-7.147.15.397-.994.645-1.69.743-2.086.249-.744.398-1.712.448-2.905.149-2.68.223-7.744.223-15.192V26.938a820.5 820.5 0 0 0-.073-11.022c-.1-2.481-.249-4.219-.448-5.213-.1-.545-.447-1.438-1.043-2.68.894-.049 2.31-.049 4.245 0a104939.823 104939.823 0 0 0 21.371 0c.05.05-.074 1.315-.372 3.798l-.52 4.02c-.646-.992-1.167-1.575-1.564-1.748-.397-.174-1.315-.31-2.755-.41-2.334-.149-4.99-.174-7.97-.075v14.446h3.575c2.285 0 3.725-.05 4.32-.148.943-.1 1.86-.423 2.755-.968V35.5c-.993-.793-2.83-1.19-5.511-1.19zM60.56 116.07v75.061c0 5.87 1.02 9.923 3.062 12.158 2.041 2.234 5.806 3.223 11.296 2.966 14.554-.51 21.832-16.34 21.832-47.485 0-9.83-2.299-19.467-6.895-28.914-5.361-10.85-11.68-16.274-18.957-16.274-.254 0-3.7.83-10.337 2.489zm-.193-93.445v69.889c3.19 1.531 6.765 2.297 10.723 2.297 4.468 0 8.489-2.68 12.061-8.041 4.215-6.128 6.323-14.042 6.323-23.743 0-11.617-1.34-21.191-4.02-28.721-3.195-9.065-7.919-13.407-14.171-13.025-2.68.257-6.32.705-10.916 1.344zm-31.69 18.191c-.19-9.318-1.052-16.722-2.583-22.212a381.914 381.914 0 0 0-4.026-11.109h51.318c11.364 0 19.597 1.214 24.701 3.64 7.788 3.83 13.532 11.616 17.233 23.358 2.298 7.406 3.448 15.577 3.448 24.514 0 16.467-3.382 29.232-10.144 38.293-4.216 5.617-9.068 9.13-14.556 10.536 5.236 1.274 8.938 2.42 11.109 3.442 4.468 2.045 8.169 4.982 11.103 8.812 7.148 9.19 10.723 22.529 10.723 40.017 0 24.383-6.255 41.363-18.764 50.939-7.788 6.124-17.617 10.018-29.487 9.764-14.297-.257-32.17.382-53.615 0H23.22h.576-3.83c5.106-4.597 7.915-12.768 8.426-20.68zM161.75 152.26l-.38 38.872c0 8.04.062 12.572.187 13.592.386 2.17 1.664 3.255 3.834 3.255.763 0 2.423-.191 4.978-.573 8.298-1.149 13.658-2.234 16.082-3.255 3.19-1.406 7.53-4.916 13.02-10.53-.763 5.871-2.103 15.955-4.02 27.19h-65.483c1.02-2.555 1.658-5.874 1.91-6.895.64-1.913 1.023-4.402 1.152-7.468.382-6.892.573-19.913.573-39.064v-34.08c0-9.576-.062-19.023-.187-28.341-.257-6.381-.641-10.85-1.151-13.405-.258-1.402-1.152-3.7-2.683-6.89h65.87c.128.125-.192 3.38-.959 9.765l-1.338 10.337c-1.66-2.552-3-4.05-4.02-4.497-1.021-.446-3.382-.797-7.083-1.055-6.003-.381-12.835-.446-20.494-.192v37.148h9.192c5.875 0 9.578-.127 11.109-.38 2.423-.257 4.784-1.087 7.082-2.49v22.019c-2.551-2.041-7.275-3.062-14.17-3.062zM231.47 165.28h17.805l-9.192-52.464zm40.975-.573c6.385 33.698 12.322 53.42 17.811 56.104h-37.341l2.49-5.937c-.13-3.576-.895-11.683-2.297-24.32H228.02c-1.66 8.297-2.49 14.553-2.49 18.77 0 4.592.959 9.7 2.876 11.488h-31.403c3.443-1.916 6.188-8.044 8.233-15.322 1.531-4.978 4.786-19.53 9.765-43.658l5.358-25.659c5.236-25.018 7.854-39.187 7.854-42.506 0-5.107-1.788-7.721-5.364-8.999h43.85c-4.979 1.788-7.468 4.913-7.468 10.53 0 3.19.83 8.616 2.49 16.274zM343.25 133.49v21.639c0 53.36.127 58.787.38 65.682.257 5.87 1.278 35.102 3.062 38.293 1.15 1.917 3.192 3.96 6.13 6.13h-48.636a306.693 306.693 0 0 1 6.13-6.703c2.423-3.447 3.699-32.36 3.827-37.72.382-7.787.573-13.214.573-65.296v-22.597c0-16.72-.19-27.06-.573-31.018l-10.343-.385c-4.34-.129-8.424 1.276-12.254 4.213-2.808 2.17-4.787 4.595-5.937 7.275 0-1.784.575-4.273 1.724-7.468 1.407-3.954 2.365-7.145 2.875-9.572.51-1.66 1.467-5.167 2.87-11.296h69.895c.128 2.556 1.34 6.255 3.634 13.785 1.407 3.701 3.004 8.552 4.792 14.551-3.066-3.7-5.365-6.126-6.895-7.275-4.087-3.062-8.62-4.466-13.598-4.213l-7.848.385v12.827c.128 8.556.192 14.81.192 18.764z"/><path d="m399.54 130.82-.38 25.846v30.831c0 7.406.191 12.065.573 13.978.767 2.427 2.427 3.64 4.979 3.64 1.406 0 4.024-.383 7.853-1.15 5.36-1.021 10.02-3.191 13.978-6.51a334.785 334.785 0 0 0 6.703-6.896c-1.406 7.024-3.004 18.131-4.792 30.258h-58.208c1.531-3.194 2.488-7.918 2.87-11.109.895-5.489 1.343-26.935 1.343-64.338v-36.382c0-10.85-1.213-18.697-3.64-24.315h32.555c-.639 1.15-1.278 1.977-1.917 3.252-.639 1.276-1.022 3-1.151 5.169-.125 1.15-.38 13.725-.765 37.726zM466.17 152.26l-.38 38.872c0 8.04.062 12.572.187 13.592.386 2.17 1.664 3.255 3.834 3.255.763 0 2.423-.191 4.978-.573 8.298-1.149 13.658-2.234 16.082-3.255 3.19-1.406 7.53-4.916 13.02-10.53-.763 5.871-2.103 15.955-4.02 27.19h-65.483c1.02-2.555 1.658-5.874 1.91-6.895.64-1.913 1.023-4.402 1.152-7.468.382-6.892.573-19.913.573-39.064v-34.08c0-9.576-.063-19.023-.187-28.341-.257-6.381-.641-10.85-1.151-13.405-.258-1.402-1.152-3.7-2.683-6.89 12.547-.026 25.098-.008 37.65 0 9.406.005 18.813 0 28.22 0 .128.125-.192 3.38-.959 9.765l-1.338 10.337c-1.66-2.552-3-4.05-4.02-4.497-1.021-.446-3.382-.797-7.083-1.055-6.003-.381-12.835-.446-20.494-.192v37.148h9.192c5.875 0 9.578-.127 11.109-.38 2.423-.257 4.784-1.087 7.082-2.49v22.019c-2.551-2.041-7.275-3.062-14.17-3.062zM543.56 81.22c5.103.129 10.336 1.438 15.699 3.927 5.362 2.49 8.618 3.734 9.768 3.734 1.66 0 3.19-.894 4.593-2.682-1.021 3.7-2.872 10.657-5.552 20.867-4.468-4.211-6.957-6.572-7.468-7.083-3.7-2.426-8.296-3.767-13.785-4.02-4.215-.128-7.854 1.147-10.916 3.828-3.7 3.194-5.551 7.791-5.551 13.79 0 7.15 3 12.894 8.999 17.234a895.467 895.467 0 0 0 18.957 10.91c15.318 9.194 22.977 20.94 22.977 35.237 0 13.4-3.639 23.933-10.916 31.596-7.788 8.169-18.957 12.254-33.507 12.254-8.298 0-15.32-2.363-21.066-7.089-6.381-5.232-9.956-12.252-10.723-21.06.128-5.746 1.342-10.279 3.64-13.598 1.785-2.68 3.7-4.02 5.745-4.02 1.274 0 1.91.639 1.91 1.917 0 .892-.51 1.977-1.53 3.254a18.92 18.92 0 0 0-.573 4.594c0 5.235 1.787 9.864 5.362 13.884 3.574 4.02 7.34 6.159 11.299 6.416 7.787.51 13.883-1.182 18.288-5.075 4.404-3.894 6.606-9.544 6.606-16.95 0-8.169-3.894-15.572-11.681-22.211-.129-.125-6.703-4.145-19.722-12.061-9.319-5.618-15.127-13.405-17.426-23.363-1.531-7.02-1.212-13.785.958-20.295 5.49-16.467 17.361-24.446 35.617-23.935z"/></svg>